<svg xmlns="http://www.w3.org/2000/svg" style="display: none;">
    <symbol id="logo" viewBox="0 0 314.652 314.652">
        <title>logo</title>
        <path d="M157.326,0C70.576,0,0,70.576,0,157.326s70.576,157.326,157.326,157.326s157.326-70.576,157.326-157.326 S244.076,0,157.326,0z M157.326,296.652C80.501,296.652,18,234.15,18,157.326S80.501,18,157.326,18s139.326,62.502,139.326,139.326 S234.151,296.652,157.326,296.652z"/>
        <path d="M112.326,121.119c-4.971,0-9,4.029-9,9v74.414c0,4.971,4.029,9,9,9s9-4.029,9-9v-74.414 C121.326,125.148,117.297,121.119,112.326,121.119z"/>
        <path d="M112.326,79.116c-2.37,0-4.69,0.96-6.36,2.64c-1.68,1.67-2.64,3.99-2.64,6.36s0.96,4.689,2.64,6.37 c1.67,1.67,3.99,2.63,6.36,2.63c2.37,0,4.69-0.96,6.36-2.63c1.68-1.681,2.64-4,2.64-6.37s-0.96-4.69-2.64-6.36 C117.016,80.076,114.696,79.116,112.326,79.116z"/>
        <path d="M190.076,128.119c-9.42,0-18.139,3.036-25.25,8.169v-6.169c0-4.971-4.029-9-9-9s-9,4.029-9,9v74.414c0,4.971,4.029,9,9,9 s9-4.029,9-9v-33.164c0-13.923,11.327-25.25,25.25-25.25s25.25,11.327,25.25,25.25v35.164c0,4.971,4.029,9,9,9s9-4.029,9-9v-35.164 C233.326,147.521,213.924,128.119,190.076,128.119z"/>
    </symbol>
    <symbol id="facebook" viewBox="0 0 314.652 314.652">
        <title>facebook</title>
        <path d="M157.326,0C70.576,0,0,70.576,0,157.326s70.576,157.326,157.326,157.326s157.326-70.576,157.326-157.326 S244.076,0,157.326,0z M157.326,296.652C80.501,296.652,18,234.15,18,157.326S80.501,18,157.326,18s139.326,62.502,139.326,139.326 S234.151,296.652,157.326,296.652z"/>
        <path d="M193.764,71.952H172.43c-17.461,0-31.667,14.206-31.667,31.667v24h-19.875c-4.971,0-9,4.029-9,9s4.029,9,9,9h19.875v83.333 c0,4.971,4.029,9,9,9s9-4.029,9-9v-83.333h30.75c4.971,0,9-4.029,9-9s-4.029-9-9-9h-30.75v-24c0-7.536,6.131-13.667,13.667-13.667 h21.333c4.971,0,9-4.029,9-9S198.734,71.952,193.764,71.952z"/>
    </symbol>
    <symbol id="google" viewBox="0 0 314.652 314.652">
        <title>google</title>
        <path d="M157.326,0C70.576,0,0,70.576,0,157.326s70.576,157.326,157.326,157.326s157.326-70.576,157.326-157.326 S244.076,0,157.326,0z M157.326,296.652C80.501,296.652,18,234.15,18,157.326S80.501,18,157.326,18s139.326,62.502,139.326,139.326 S234.151,296.652,157.326,296.652z"/>
        <path d="M225.66,148.326h-61.584c-4.971,0-9,4.029-9,9s4.029,9,9,9h51.903c-4.35,28.461-28.995,50.333-58.652,50.333 c-32.717,0-59.333-26.616-59.333-59.333s26.617-59.333,59.333-59.333c14.969,0,29.263,5.59,40.249,15.738 c3.653,3.374,9.346,3.148,12.718-0.503c3.373-3.651,3.147-9.346-0.503-12.718c-14.322-13.231-32.954-20.518-52.464-20.518 c-42.642,0-77.333,34.691-77.333,77.333s34.691,77.333,77.333,77.333s77.333-34.691,77.333-77.333 C234.66,152.355,230.63,148.326,225.66,148.326z"/>
    </symbol>
    <symbol id="twitter" viewBox="0 0 314.652 314.652">
        <title>twitter</title>
        <path d="M157.326,0C70.576,0,0,70.576,0,157.326s70.576,157.326,157.326,157.326s157.326-70.576,157.326-157.326 S244.076,0,157.326,0z M157.326,296.652C80.502,296.652,18,234.15,18,157.326S80.502,18,157.326,18s139.326,62.502,139.326,139.326 S234.15,296.652,157.326,296.652z"/>
        <path d="M188.326,132.806c4.971,0,9-4.029,9-9s-4.029-9-9-9h-53v-9.146c0-4.971-4.029-9-9-9s-9,4.029-9,9v59.448 c0,29.161,23.724,52.886,52.885,52.886h18.115c4.971,0,9-4.029,9-9s-4.029-9-9-9h-18.115c-19.235,0-34.885-15.649-34.885-34.886 v-32.302H188.326z"/>
    </symbol>
    <symbol id="language" viewBox="0 0 284.928 284.928">
        <title>language</title>
        <path d="M142.464,0C63.909,0,0,63.909,0,142.464s63.909,142.464,142.464,142.464s142.464-63.909,142.464-142.464 S221.019,0,142.464,0z M266.928,142.464c0,6.306-0.476,12.503-1.385,18.56c-11.37-19.454-32.466-32.56-56.579-32.56 c-26.191,0-47.5-21.309-47.5-47.5c0-23.49,17.502-43.705,40.712-47.02c0.296-0.042,0.586-0.1,0.871-0.17 C241.125,55.084,266.928,95.814,266.928,142.464z M35.467,78.949h23.343c8.202,0,16.112,3.442,21.702,9.445 c5.43,5.832,8.114,13.34,7.557,21.146c-0.029,0.414-0.068,0.83-0.114,1.241c-1.84,16.302-16.605,28.066-32.897,26.228 c-13.823-1.561-27.077,2.876-36.908,11.53c-0.097-2.013-0.15-4.038-0.15-6.074C18,119.277,24.38,97.555,35.467,78.949z M92.345,256.378l39.821-63.612c4.433-7.082,10.828-12.583,18.494-15.91c10.976-4.765,23.456-4.517,34.238,0.679 c17.729,8.544,28.349,26.754,27.054,46.393l-1.469,22.277c-0.01,0.149-0.004,0.296-0.007,0.444 c-19.563,12.814-42.931,20.279-68.013,20.279C124.642,266.928,107.687,263.155,92.345,256.378z M229.502,231.339l0.411-6.228 c1.78-27.003-12.821-52.043-37.2-63.792c-15.498-7.47-33.438-7.824-49.219-0.976c-11.019,4.782-20.212,12.691-26.586,22.872 l-40.497,64.691c-26.535-16.682-46.364-43.09-54.436-74.19c4.869-12.631,17.509-20.349,31.065-18.821 c1.811,0.204,3.606,0.304,5.388,0.304c23.952-0.001,44.666-18.048,47.414-42.404c0.075-0.662,0.136-1.321,0.183-1.977 c0.916-12.842-3.466-25.162-12.339-34.69c-8.982-9.646-21.693-15.179-34.875-15.179H48.483C71.321,34.654,104.983,18,142.464,18 c12.392,0,24.363,1.829,35.668,5.217c-20.73,11.16-34.668,33.145-34.668,57.747c0,36.117,29.383,65.5,65.5,65.5 c25.692,0,46.67,20.507,47.462,46.01C249.975,207.117,240.784,220.289,229.502,231.339z"/>
    </symbol>
</svg>